<svg xmlns="http://www.w3.org/2000/svg" viewBox="0 0 220 220" fill="none">
  <defs>
    <linearGradient id="arbsflow-brand-gradient" x1="28" y1="24" x2="188" y2="188" gradientUnits="userSpaceOnUse">
      <stop stop-color="#1CFFA4"/>
      <stop offset="1" stop-color="#17D96C"/>
    </linearGradient>
  </defs>
  <path
    d="M24 94L66 56L102 92L160 34"
    stroke="url(#arbsflow-brand-gradient)"
    stroke-linecap="round"
    stroke-linejoin="round"
    stroke-width="18"
  />
  <path d="M146 26L198 18L188 70" fill="url(#arbsflow-brand-gradient)"/>
  <path
    d="M34 122C57 104 84 103 107 118C131 134 155 135 178 119"
    stroke="url(#arbsflow-brand-gradient)"
    stroke-linecap="round"
    stroke-width="14"
  />
  <path
    d="M86 121C102 129 113 141 128 148C150 158 170 149 177 130C183 114 177 98 164 89"
    stroke="url(#arbsflow-brand-gradient)"
    stroke-linecap="round"
    stroke-linejoin="round"
    stroke-width="14"
  />
  <path
    d="M18 154C45 136 74 136 98 152C123 169 149 170 186 154"
    stroke="url(#arbsflow-brand-gradient)"
    stroke-linecap="round"
    stroke-width="14"
  />
</svg>
