<svg xmlns="http://www.w3.org/2000/svg" viewBox="0 0 760 180" fill="none">
  <defs>
    <linearGradient id="arbsflow-logo-gradient" x1="18" y1="18" x2="202" y2="174" gradientUnits="userSpaceOnUse">
      <stop stop-color="#1CFFA4"/>
      <stop offset="1" stop-color="#17D96C"/>
    </linearGradient>
  </defs>
  <g transform="translate(8 12)">
    <path
      d="M24 94L66 56L102 92L160 34"
      stroke="url(#arbsflow-logo-gradient)"
      stroke-linecap="round"
      stroke-linejoin="round"
      stroke-width="18"
    />
    <path d="M146 26L198 18L188 70" fill="url(#arbsflow-logo-gradient)"/>
    <path
      d="M34 122C57 104 84 103 107 118C131 134 155 135 178 119"
      stroke="url(#arbsflow-logo-gradient)"
      stroke-linecap="round"
      stroke-width="14"
    />
    <path
      d="M86 121C102 129 113 141 128 148C150 158 170 149 177 130C183 114 177 98 164 89"
      stroke="url(#arbsflow-logo-gradient)"
      stroke-linecap="round"
      stroke-linejoin="round"
      stroke-width="14"
    />
    <path
      d="M18 154C45 136 74 136 98 152C123 169 149 170 186 154"
      stroke="url(#arbsflow-logo-gradient)"
      stroke-linecap="round"
      stroke-width="14"
    />
  </g>
  <text
    x="228"
    y="112"
    fill="#F8FAFC"
    font-family="Arial Black, Arial, sans-serif"
    font-size="92"
    font-weight="900"
    letter-spacing="-5"
  >
    Arbs
  </text>
  <text
    x="444"
    y="112"
    fill="url(#arbsflow-logo-gradient)"
    font-family="Arial Black, Arial, sans-serif"
    font-size="92"
    font-weight="900"
    letter-spacing="-5"
  >
    Flow
  </text>
</svg>
